<mxfile host="app.diagrams.net" modified="2024-07-11T10:36:32.361Z" agent="Mozilla/5.0 (Windows NT 10.0; Win64; x64) AppleWebKit/537.36 (KHTML, like Gecko) Chrome/126.0.0.0 Safari/537.36" etag="VoW3Kqj2pdCTcARDHSt2" version="24.5.5" type="device">
  <diagram name="PÃ¡gina-1" id="tHPAbn0yxYUUumAJxtW6">
    <mxGraphModel dx="1226" dy="818" grid="1" gridSize="10" guides="1" tooltips="1" connect="1" arrows="1" fold="1" page="1" pageScale="1" pageWidth="827" pageHeight="1169" math="0" shadow="0">
      <root>
        <mxCell id="0" />
        <mxCell id="1" parent="0" />
        <mxCell id="6XcvnYCRP_wMGDZiT3nz-2" value="" style="rounded=1;whiteSpace=wrap;html=1;fillColor=none;dashed=1;" parent="1" vertex="1">
          <mxGeometry x="230" y="70" width="790" height="590" as="geometry" />
        </mxCell>
        <mxCell id="Gjsv8wjIAJ71rTJLU2w4-7" style="edgeStyle=orthogonalEdgeStyle;rounded=0;orthogonalLoop=1;jettySize=auto;html=1;entryX=0;entryY=0.5;entryDx=0;entryDy=0;dashed=1;dashPattern=8 8;strokeColor=#FF5D3D;" parent="1" source="OLOpGvgUUW58ga4r5vBC-17" target="Gjsv8wjIAJ71rTJLU2w4-5" edge="1">
          <mxGeometry relative="1" as="geometry" />
        </mxCell>
        <mxCell id="OLOpGvgUUW58ga4r5vBC-35" value="&lt;div&gt;data&lt;/div&gt;json" style="text;html=1;align=center;verticalAlign=middle;whiteSpace=wrap;rounded=0;" parent="1" vertex="1">
          <mxGeometry x="411" y="260" width="60" height="30" as="geometry" />
        </mxCell>
        <mxCell id="OLOpGvgUUW58ga4r5vBC-36" value="data serialize" style="text;html=1;align=center;verticalAlign=middle;whiteSpace=wrap;rounded=0;" parent="1" vertex="1">
          <mxGeometry x="530" y="412" width="60" height="30" as="geometry" />
        </mxCell>
        <mxCell id="OLOpGvgUUW58ga4r5vBC-39" value="js" style="text;html=1;align=center;verticalAlign=middle;whiteSpace=wrap;rounded=0;" parent="1" vertex="1">
          <mxGeometry x="86" y="238" width="60" height="30" as="geometry" />
        </mxCell>
        <mxCell id="Gjsv8wjIAJ71rTJLU2w4-4" style="edgeStyle=orthogonalEdgeStyle;rounded=0;orthogonalLoop=1;jettySize=auto;html=1;entryX=0;entryY=0.5;entryDx=0;entryDy=0;entryPerimeter=0;dashed=1;dashPattern=8 8;strokeColor=#FF5D3D;" parent="1" source="OLOpGvgUUW58ga4r5vBC-17" target="OLOpGvgUUW58ga4r5vBC-8" edge="1">
          <mxGeometry relative="1" as="geometry" />
        </mxCell>
        <mxCell id="Gjsv8wjIAJ71rTJLU2w4-6" value="data" style="text;html=1;align=center;verticalAlign=middle;whiteSpace=wrap;rounded=0;" parent="1" vertex="1">
          <mxGeometry x="736" y="240" width="60" height="30" as="geometry" />
        </mxCell>
        <mxCell id="Gjsv8wjIAJ71rTJLU2w4-9" value="data" style="text;html=1;align=center;verticalAlign=middle;whiteSpace=wrap;rounded=0;" parent="1" vertex="1">
          <mxGeometry x="726" y="344" width="60" height="30" as="geometry" />
        </mxCell>
        <mxCell id="6XcvnYCRP_wMGDZiT3nz-3" value="" style="image;sketch=0;aspect=fixed;html=1;points=[];align=center;fontSize=12;image=img/lib/mscae/Docker.svg;" parent="1" vertex="1">
          <mxGeometry x="270" y="110" width="73.17" height="60" as="geometry" />
        </mxCell>
        <mxCell id="6XcvnYCRP_wMGDZiT3nz-4" value="" style="group" parent="1" vertex="1" connectable="0">
          <mxGeometry x="596" y="200" width="150" height="90" as="geometry" />
        </mxCell>
        <mxCell id="OLOpGvgUUW58ga4r5vBC-17" value="store_api_inventory" style="rounded=1;whiteSpace=wrap;html=1;" parent="6XcvnYCRP_wMGDZiT3nz-4" vertex="1">
          <mxGeometry width="140" height="90" as="geometry" />
        </mxCell>
        <mxCell id="OLOpGvgUUW58ga4r5vBC-28" value="8001" style="text;html=1;align=center;verticalAlign=middle;whiteSpace=wrap;rounded=0;" parent="6XcvnYCRP_wMGDZiT3nz-4" vertex="1">
          <mxGeometry x="90" y="60" width="60" height="30" as="geometry" />
        </mxCell>
        <mxCell id="OLOpGvgUUW58ga4r5vBC-37" value="python" style="text;html=1;align=center;verticalAlign=middle;whiteSpace=wrap;rounded=0;" parent="6XcvnYCRP_wMGDZiT3nz-4" vertex="1">
          <mxGeometry y="60" width="60" height="30" as="geometry" />
        </mxCell>
        <mxCell id="kYYetb4KGFizAUU8a-L2-5" value="" style="shape=image;verticalLabelPosition=bottom;labelBackgroundColor=default;verticalAlign=top;aspect=fixed;imageAspect=0;image=https://cdn3.iconfinder.com/data/icons/logos-and-brands-adobe/512/267_Python-512.png;" vertex="1" parent="6XcvnYCRP_wMGDZiT3nz-4">
          <mxGeometry y="8" width="30" height="30" as="geometry" />
        </mxCell>
        <mxCell id="6XcvnYCRP_wMGDZiT3nz-6" value="" style="group" parent="1" vertex="1" connectable="0">
          <mxGeometry x="846" y="185" width="90" height="120" as="geometry" />
        </mxCell>
        <mxCell id="Gjsv8wjIAJ71rTJLU2w4-3" value="3306" style="text;html=1;align=center;verticalAlign=middle;whiteSpace=wrap;rounded=0;" parent="6XcvnYCRP_wMGDZiT3nz-6" vertex="1">
          <mxGeometry x="30" y="80" width="60" height="30" as="geometry" />
        </mxCell>
        <mxCell id="kYYetb4KGFizAUU8a-L2-24" value="" style="group" vertex="1" connectable="0" parent="6XcvnYCRP_wMGDZiT3nz-6">
          <mxGeometry width="90" height="120" as="geometry" />
        </mxCell>
        <mxCell id="OLOpGvgUUW58ga4r5vBC-8" value="&lt;div&gt;store_inventory&lt;/div&gt;" style="shape=cylinder3;whiteSpace=wrap;html=1;boundedLbl=1;backgroundOutline=1;size=15;" parent="kYYetb4KGFizAUU8a-L2-24" vertex="1">
          <mxGeometry width="90" height="120" as="geometry" />
        </mxCell>
        <mxCell id="kYYetb4KGFizAUU8a-L2-17" value="" style="shape=image;verticalLabelPosition=bottom;labelBackgroundColor=default;verticalAlign=top;aspect=fixed;imageAspect=0;image=https://cdn.iconscout.com/icon/free/png-256/free-mysql-21-1174941.png;" vertex="1" parent="kYYetb4KGFizAUU8a-L2-24">
          <mxGeometry x="7" y="25" width="50" height="50" as="geometry" />
        </mxCell>
        <mxCell id="kYYetb4KGFizAUU8a-L2-41" value="3306" style="text;html=1;align=center;verticalAlign=middle;whiteSpace=wrap;rounded=0;fontColor=#000000;textShadow=1;" vertex="1" parent="kYYetb4KGFizAUU8a-L2-24">
          <mxGeometry x="44" y="95" width="40" height="15" as="geometry" />
        </mxCell>
        <mxCell id="6XcvnYCRP_wMGDZiT3nz-7" value="" style="group" parent="1" vertex="1" connectable="0">
          <mxGeometry x="696" y="520" width="120" height="90" as="geometry" />
        </mxCell>
        <mxCell id="6XcvnYCRP_wMGDZiT3nz-1" value="6379" style="text;html=1;align=center;verticalAlign=middle;whiteSpace=wrap;rounded=0;" parent="6XcvnYCRP_wMGDZiT3nz-7" vertex="1">
          <mxGeometry x="60" y="60" width="60" height="30" as="geometry" />
        </mxCell>
        <mxCell id="kYYetb4KGFizAUU8a-L2-39" value="" style="group" vertex="1" connectable="0" parent="6XcvnYCRP_wMGDZiT3nz-7">
          <mxGeometry width="120" height="90" as="geometry" />
        </mxCell>
        <mxCell id="Gjsv8wjIAJ71rTJLU2w4-5" value="Redis" style="rounded=1;whiteSpace=wrap;html=1;" parent="kYYetb4KGFizAUU8a-L2-39" vertex="1">
          <mxGeometry width="120" height="90" as="geometry" />
        </mxCell>
        <mxCell id="kYYetb4KGFizAUU8a-L2-38" value="" style="image;sketch=0;aspect=fixed;html=1;points=[];align=center;fontSize=12;image=img/lib/mscae/Cache_Redis_Product.svg;" vertex="1" parent="kYYetb4KGFizAUU8a-L2-39">
          <mxGeometry x="4" y="10" width="35.71" height="30" as="geometry" />
        </mxCell>
        <mxCell id="kYYetb4KGFizAUU8a-L2-40" value="6379" style="text;html=1;align=center;verticalAlign=middle;whiteSpace=wrap;rounded=0;" vertex="1" parent="kYYetb4KGFizAUU8a-L2-39">
          <mxGeometry x="60" y="60" width="60" height="30" as="geometry" />
        </mxCell>
        <mxCell id="Mkseqa18Uz2iVsQ0D1to-3" value="" style="group" parent="1" vertex="1" connectable="0">
          <mxGeometry x="481" y="497" width="130" height="80" as="geometry" />
        </mxCell>
        <mxCell id="kYYetb4KGFizAUU8a-L2-31" value="" style="group" vertex="1" connectable="0" parent="Mkseqa18Uz2iVsQ0D1to-3">
          <mxGeometry y="-20" width="130" height="100" as="geometry" />
        </mxCell>
        <mxCell id="OLOpGvgUUW58ga4r5vBC-10" value="Queue server" style="rounded=1;whiteSpace=wrap;html=1;" parent="kYYetb4KGFizAUU8a-L2-31" vertex="1">
          <mxGeometry width="130" height="100" as="geometry" />
        </mxCell>
        <mxCell id="OLOpGvgUUW58ga4r5vBC-27" value="15672" style="text;html=1;align=center;verticalAlign=middle;whiteSpace=wrap;rounded=0;" parent="kYYetb4KGFizAUU8a-L2-31" vertex="1">
          <mxGeometry x="70" y="60" width="60" height="30" as="geometry" />
        </mxCell>
        <mxCell id="kYYetb4KGFizAUU8a-L2-30" value="" style="shape=image;verticalLabelPosition=bottom;labelBackgroundColor=default;verticalAlign=top;aspect=fixed;imageAspect=0;image=https://static-00.iconduck.com/assets.00/rabbitmq-icon-121x128-x4ao0pbw.png;" vertex="1" parent="kYYetb4KGFizAUU8a-L2-31">
          <mxGeometry x="9" y="15" width="28.36" height="30" as="geometry" />
        </mxCell>
        <mxCell id="Mkseqa18Uz2iVsQ0D1to-4" value="" style="group" parent="1" vertex="1" connectable="0">
          <mxGeometry x="70" y="362" width="140" height="120" as="geometry" />
        </mxCell>
        <mxCell id="OLOpGvgUUW58ga4r5vBC-26" value="5173" style="text;html=1;align=center;verticalAlign=middle;whiteSpace=wrap;rounded=0;" parent="Mkseqa18Uz2iVsQ0D1to-4" vertex="1">
          <mxGeometry x="70" y="80" width="60" height="30" as="geometry" />
        </mxCell>
        <mxCell id="kYYetb4KGFizAUU8a-L2-48" value="" style="group" vertex="1" connectable="0" parent="Mkseqa18Uz2iVsQ0D1to-4">
          <mxGeometry width="140" height="120" as="geometry" />
        </mxCell>
        <mxCell id="OLOpGvgUUW58ga4r5vBC-1" value="&lt;div&gt;Portal&lt;/div&gt;&lt;div&gt;frontend&lt;/div&gt;" style="rounded=1;whiteSpace=wrap;html=1;" parent="kYYetb4KGFizAUU8a-L2-48" vertex="1">
          <mxGeometry width="140" height="120" as="geometry" />
        </mxCell>
        <mxCell id="kYYetb4KGFizAUU8a-L2-46" value="" style="shape=image;verticalLabelPosition=bottom;labelBackgroundColor=default;verticalAlign=top;aspect=fixed;imageAspect=0;image=https://upload.wikimedia.org/wikipedia/commons/thumb/a/a7/React-icon.svg/2300px-React-icon.svg.png;" vertex="1" parent="kYYetb4KGFizAUU8a-L2-48">
          <mxGeometry x="10" y="8" width="34.52" height="30" as="geometry" />
        </mxCell>
        <mxCell id="Mkseqa18Uz2iVsQ0D1to-6" style="edgeStyle=orthogonalEdgeStyle;rounded=0;orthogonalLoop=1;jettySize=auto;html=1;dashed=1;dashPattern=8 8;strokeColor=#FF5D3D;" parent="1" source="kYYetb4KGFizAUU8a-L2-5" target="6XcvnYCRP_wMGDZiT3nz-5" edge="1">
          <mxGeometry relative="1" as="geometry" />
        </mxCell>
        <mxCell id="Mkseqa18Uz2iVsQ0D1to-7" style="edgeStyle=orthogonalEdgeStyle;rounded=0;orthogonalLoop=1;jettySize=auto;html=1;entryX=0.036;entryY=0.578;entryDx=0;entryDy=0;entryPerimeter=0;dashed=1;dashPattern=8 8;strokeColor=#FF5D3D;" parent="1" source="6XcvnYCRP_wMGDZiT3nz-5" target="OLOpGvgUUW58ga4r5vBC-17" edge="1">
          <mxGeometry relative="1" as="geometry" />
        </mxCell>
        <mxCell id="Mkseqa18Uz2iVsQ0D1to-13" value="" style="group" parent="1" vertex="1" connectable="0">
          <mxGeometry x="380" y="240" width="640" height="953" as="geometry" />
        </mxCell>
        <mxCell id="6XcvnYCRP_wMGDZiT3nz-5" value="api gateway" style="rounded=1;whiteSpace=wrap;html=1;" parent="Mkseqa18Uz2iVsQ0D1to-13" vertex="1">
          <mxGeometry width="70" height="122" as="geometry" />
        </mxCell>
        <mxCell id="Mkseqa18Uz2iVsQ0D1to-12" value="8004" style="text;html=1;align=center;verticalAlign=middle;whiteSpace=wrap;rounded=0;" parent="Mkseqa18Uz2iVsQ0D1to-13" vertex="1">
          <mxGeometry x="10" y="86" width="60" height="30" as="geometry" />
        </mxCell>
        <mxCell id="kYYetb4KGFizAUU8a-L2-29" value="" style="shape=image;verticalLabelPosition=bottom;labelBackgroundColor=default;verticalAlign=top;aspect=fixed;imageAspect=0;image=https://cdn3.iconfinder.com/data/icons/logos-and-brands-adobe/512/267_Python-512.png;" vertex="1" parent="Mkseqa18Uz2iVsQ0D1to-13">
          <mxGeometry x="10" y="14" width="30" height="30" as="geometry" />
        </mxCell>
        <mxCell id="kYYetb4KGFizAUU8a-L2-1" value="" style="group" vertex="1" connectable="0" parent="1">
          <mxGeometry x="596" y="330" width="150" height="90" as="geometry" />
        </mxCell>
        <mxCell id="kYYetb4KGFizAUU8a-L2-2" value="store_api" style="rounded=1;whiteSpace=wrap;html=1;" vertex="1" parent="kYYetb4KGFizAUU8a-L2-1">
          <mxGeometry width="140" height="90" as="geometry" />
        </mxCell>
        <mxCell id="kYYetb4KGFizAUU8a-L2-3" value="8000" style="text;html=1;align=center;verticalAlign=middle;whiteSpace=wrap;rounded=0;" vertex="1" parent="kYYetb4KGFizAUU8a-L2-1">
          <mxGeometry x="90" y="60" width="60" height="30" as="geometry" />
        </mxCell>
        <mxCell id="kYYetb4KGFizAUU8a-L2-4" value="python" style="text;html=1;align=center;verticalAlign=middle;whiteSpace=wrap;rounded=0;" vertex="1" parent="kYYetb4KGFizAUU8a-L2-1">
          <mxGeometry y="60" width="60" height="30" as="geometry" />
        </mxCell>
        <mxCell id="kYYetb4KGFizAUU8a-L2-7" value="" style="shape=image;verticalLabelPosition=bottom;labelBackgroundColor=default;verticalAlign=top;aspect=fixed;imageAspect=0;image=https://cdn3.iconfinder.com/data/icons/logos-and-brands-adobe/512/267_Python-512.png;" vertex="1" parent="kYYetb4KGFizAUU8a-L2-1">
          <mxGeometry x="10" y="10" width="30" height="30" as="geometry" />
        </mxCell>
        <mxCell id="kYYetb4KGFizAUU8a-L2-8" style="edgeStyle=orthogonalEdgeStyle;rounded=0;orthogonalLoop=1;jettySize=auto;html=1;strokeColor=#3399FF;strokeWidth=2;dashed=1;" edge="1" parent="1" source="kYYetb4KGFizAUU8a-L2-2" target="Gjsv8wjIAJ71rTJLU2w4-5">
          <mxGeometry relative="1" as="geometry" />
        </mxCell>
        <mxCell id="kYYetb4KGFizAUU8a-L2-21" value="" style="group" vertex="1" connectable="0" parent="1">
          <mxGeometry x="836" y="320" width="97" height="110" as="geometry" />
        </mxCell>
        <mxCell id="kYYetb4KGFizAUU8a-L2-18" value="" style="image;sketch=0;aspect=fixed;html=1;points=[];align=center;fontSize=12;image=img/lib/mscae/Azure_Database_for_PostgreSQL_servers.svg;" vertex="1" parent="kYYetb4KGFizAUU8a-L2-21">
          <mxGeometry x="13.399999999999977" width="83.6" height="110" as="geometry" />
        </mxCell>
        <mxCell id="kYYetb4KGFizAUU8a-L2-19" value="5432" style="text;html=1;align=center;verticalAlign=middle;whiteSpace=wrap;rounded=0;fontColor=#FFFFFF;" vertex="1" parent="kYYetb4KGFizAUU8a-L2-21">
          <mxGeometry x="57" y="90" width="40" height="15" as="geometry" />
        </mxCell>
        <mxCell id="kYYetb4KGFizAUU8a-L2-20" value="store" style="text;html=1;align=center;verticalAlign=middle;whiteSpace=wrap;rounded=0;fontColor=#FFFFFF;" vertex="1" parent="kYYetb4KGFizAUU8a-L2-21">
          <mxGeometry y="20" width="60" height="30" as="geometry" />
        </mxCell>
        <mxCell id="kYYetb4KGFizAUU8a-L2-22" style="edgeStyle=orthogonalEdgeStyle;rounded=0;orthogonalLoop=1;jettySize=auto;html=1;strokeColor=#FF5D3D;dashed=1;dashPattern=8 8;" edge="1" parent="1" source="kYYetb4KGFizAUU8a-L2-2" target="kYYetb4KGFizAUU8a-L2-18">
          <mxGeometry relative="1" as="geometry" />
        </mxCell>
        <mxCell id="kYYetb4KGFizAUU8a-L2-25" style="edgeStyle=orthogonalEdgeStyle;rounded=0;orthogonalLoop=1;jettySize=auto;html=1;entryX=0;entryY=0.5;entryDx=0;entryDy=0;strokeColor=#FF5D3D;dashed=1;dashPattern=8 8;" edge="1" parent="1" source="6XcvnYCRP_wMGDZiT3nz-5" target="kYYetb4KGFizAUU8a-L2-2">
          <mxGeometry relative="1" as="geometry" />
        </mxCell>
        <mxCell id="kYYetb4KGFizAUU8a-L2-26" style="edgeStyle=orthogonalEdgeStyle;rounded=0;orthogonalLoop=1;jettySize=auto;html=1;entryX=0;entryY=0.5;entryDx=0;entryDy=0;" edge="1" parent="1" source="OLOpGvgUUW58ga4r5vBC-1" target="6XcvnYCRP_wMGDZiT3nz-5">
          <mxGeometry relative="1" as="geometry" />
        </mxCell>
        <mxCell id="kYYetb4KGFizAUU8a-L2-27" style="edgeStyle=orthogonalEdgeStyle;rounded=0;orthogonalLoop=1;jettySize=auto;html=1;entryX=1;entryY=0.5;entryDx=0;entryDy=0;" edge="1" parent="1" source="6XcvnYCRP_wMGDZiT3nz-5" target="OLOpGvgUUW58ga4r5vBC-1">
          <mxGeometry relative="1" as="geometry" />
        </mxCell>
        <mxCell id="kYYetb4KGFizAUU8a-L2-33" style="edgeStyle=orthogonalEdgeStyle;rounded=0;orthogonalLoop=1;jettySize=auto;html=1;entryX=0.5;entryY=0;entryDx=0;entryDy=0;strokeColor=#3399FF;strokeWidth=2;dashed=1;" edge="1" parent="1" source="kYYetb4KGFizAUU8a-L2-2" target="OLOpGvgUUW58ga4r5vBC-10">
          <mxGeometry relative="1" as="geometry" />
        </mxCell>
        <mxCell id="kYYetb4KGFizAUU8a-L2-34" value="" style="group" vertex="1" connectable="0" parent="1">
          <mxGeometry x="361" y="412" width="120" height="60" as="geometry" />
        </mxCell>
        <mxCell id="AzRD07AsDR7aN085mq0A-1" value="consumer" style="rounded=1;whiteSpace=wrap;html=1;" parent="kYYetb4KGFizAUU8a-L2-34" vertex="1">
          <mxGeometry width="120" height="60" as="geometry" />
        </mxCell>
        <mxCell id="kYYetb4KGFizAUU8a-L2-32" value="" style="shape=image;verticalLabelPosition=bottom;labelBackgroundColor=default;verticalAlign=top;aspect=fixed;imageAspect=0;image=https://cdn3.iconfinder.com/data/icons/logos-and-brands-adobe/512/267_Python-512.png;" vertex="1" parent="kYYetb4KGFizAUU8a-L2-34">
          <mxGeometry x="3.169999999999959" width="30" height="30" as="geometry" />
        </mxCell>
        <mxCell id="kYYetb4KGFizAUU8a-L2-35" style="edgeStyle=orthogonalEdgeStyle;rounded=0;orthogonalLoop=1;jettySize=auto;html=1;entryX=0.5;entryY=0;entryDx=0;entryDy=0;strokeColor=#97D077;strokeWidth=2;dashed=1;dashPattern=8 8;" edge="1" parent="1" source="AzRD07AsDR7aN085mq0A-1" target="OLOpGvgUUW58ga4r5vBC-17">
          <mxGeometry relative="1" as="geometry">
            <Array as="points">
              <mxPoint x="500" y="442" />
              <mxPoint x="500" y="180" />
              <mxPoint x="666" y="180" />
            </Array>
          </mxGeometry>
        </mxCell>
        <mxCell id="kYYetb4KGFizAUU8a-L2-36" style="edgeStyle=orthogonalEdgeStyle;rounded=0;orthogonalLoop=1;jettySize=auto;html=1;entryX=-0.008;entryY=0.59;entryDx=0;entryDy=0;entryPerimeter=0;strokeWidth=2;dashed=1;strokeColor=#97D077;" edge="1" parent="1" source="AzRD07AsDR7aN085mq0A-1" target="OLOpGvgUUW58ga4r5vBC-10">
          <mxGeometry relative="1" as="geometry" />
        </mxCell>
        <mxCell id="kYYetb4KGFizAUU8a-L2-37" value="data string" style="text;html=1;align=center;verticalAlign=middle;whiteSpace=wrap;rounded=0;" vertex="1" parent="1">
          <mxGeometry x="686" y="442" width="60" height="30" as="geometry" />
        </mxCell>
        <mxCell id="kYYetb4KGFizAUU8a-L2-42" value="" style="group" vertex="1" connectable="0" parent="1">
          <mxGeometry x="75" y="210" width="130" height="110" as="geometry" />
        </mxCell>
        <mxCell id="kYYetb4KGFizAUU8a-L2-44" value="5174" style="text;html=1;align=center;verticalAlign=middle;whiteSpace=wrap;rounded=0;" vertex="1" parent="kYYetb4KGFizAUU8a-L2-42">
          <mxGeometry x="65" y="73.33333333333333" width="55.714285714285715" height="27.5" as="geometry" />
        </mxCell>
        <mxCell id="kYYetb4KGFizAUU8a-L2-47" value="" style="group" vertex="1" connectable="0" parent="kYYetb4KGFizAUU8a-L2-42">
          <mxGeometry width="130" height="110" as="geometry" />
        </mxCell>
        <mxCell id="kYYetb4KGFizAUU8a-L2-43" value="intranet&lt;div&gt;frontend&lt;/div&gt;" style="rounded=1;whiteSpace=wrap;html=1;" vertex="1" parent="kYYetb4KGFizAUU8a-L2-47">
          <mxGeometry width="130" height="110" as="geometry" />
        </mxCell>
        <mxCell id="kYYetb4KGFizAUU8a-L2-45" value="" style="shape=image;verticalLabelPosition=bottom;labelBackgroundColor=default;verticalAlign=top;aspect=fixed;imageAspect=0;image=https://upload.wikimedia.org/wikipedia/commons/thumb/a/a7/React-icon.svg/2300px-React-icon.svg.png;" vertex="1" parent="kYYetb4KGFizAUU8a-L2-47">
          <mxGeometry x="10" y="10" width="34.52" height="30" as="geometry" />
        </mxCell>
        <mxCell id="kYYetb4KGFizAUU8a-L2-49" style="edgeStyle=orthogonalEdgeStyle;rounded=0;orthogonalLoop=1;jettySize=auto;html=1;entryX=0;entryY=0.5;entryDx=0;entryDy=0;" edge="1" parent="1" source="kYYetb4KGFizAUU8a-L2-43" target="6XcvnYCRP_wMGDZiT3nz-5">
          <mxGeometry relative="1" as="geometry" />
        </mxCell>
        <mxCell id="kYYetb4KGFizAUU8a-L2-51" style="edgeStyle=orthogonalEdgeStyle;rounded=0;orthogonalLoop=1;jettySize=auto;html=1;entryX=0.5;entryY=1;entryDx=0;entryDy=0;" edge="1" parent="1" source="OLOpGvgUUW58ga4r5vBC-1" target="kYYetb4KGFizAUU8a-L2-43">
          <mxGeometry relative="1" as="geometry" />
        </mxCell>
      </root>
    </mxGraphModel>
  </diagram>
</mxfile>
